<svg xmlns="http://www.w3.org/2000/svg" viewBox="0 0 512 512" width="512" height="512"><rect width="512" height="512" rx="110" fill="#ffffff"/><g transform="translate(-2.15 6.45) scale(0.41192)"><path fill="#0a0908" fill-rule="evenodd" d="M886.1 584.0L886.3 535.0L885.3 526.0L880.3 512.0L871.0 502.8L865.0 500.6L858.0 500.1L850.0 501.9L842.0 505.8L824.0 519.9L804.6 541.0L779.8 577.0L743.5 644.0L707.8 718.0L631.3 888.0L623.0 902.7L596.2 837.0L533.2 695.0L494.6 617.0L472.1 577.0L447.3 541.0L423.0 515.3L410.0 505.7L399.0 501.0L390.0 500.3L382.0 502.7L376.0 507.4L370.7 515.0L367.7 524.0L366.5 535.0L367.3 807.0L370.4 837.0L375.5 855.0L382.5 871.0L392.9 888.0L402.8 900.0L418.0 913.7L433.0 923.3L447.0 929.2L465.0 933.6L465.3 935.0L217.0 935.2L216.5 934.0L218.0 933.4L238.0 928.0L253.0 920.3L270.0 906.9L282.0 892.9L293.4 873.0L299.4 857.0L303.3 840.0L305.4 816.0L305.3 392.0L303.5 368.0L299.6 351.0L294.5 337.0L287.5 324.0L276.1 309.0L265.0 299.0L251.0 289.9L236.9 284.0L220.7 280.0L287.0 279.2L303.0 280.8L316.0 283.9L333.0 291.7L348.7 303.0L361.3 316.0L373.6 335.0L447.3 463.0L502.3 564.0L551.3 665.0L624.0 824.5L629.2 817.0L641.4 793.0L692.8 681.0L756.7 550.0L805.6 461.0L887.6 320.0L897.0 308.6L909.0 297.7L923.0 288.7L939.0 282.0L966.0 277.4L1032.2 278.0L1015.0 282.8L1001.0 288.9L990.0 295.8L978.0 306.4L968.6 318.0L961.5 330.0L955.5 344.0L950.8 362.0L948.6 388.0L948.6 812.0L949.9 833.0L954.4 856.0L962.7 877.0L971.6 892.0L983.0 905.7L998.0 918.3L1015.0 927.5L1036.0 933.5L1036.9 935.0L787.0 935.0L788.0 933.5L802.0 930.2L817.0 924.4L832.0 915.4L843.0 906.6L855.0 893.9L864.5 881.0L872.2 867.0L879.3 849.0L883.5 831.0L885.5 809.0ZM673.1 627.0L756.5 460.0L835.9 315.0L849.0 299.5L862.0 289.8L880.0 281.8L899.0 276.9L856.0 276.4L841.0 277.8L830.3 282.0L823.0 286.8L811.7 299.0L723.0 460.0L625.0 645.3L574.6 551.0L510.5 428.0L445.3 308.0L437.4 296.0L426.0 284.8L415.0 279.1L405.0 276.8L352.6 277.0L377.0 283.8L394.0 292.7L408.3 305.0L420.3 322.0L474.3 420.0L506.5 482.0L586.1 643.0L624.0 724.2L625.3 725.0L632.0 713.0Z"/></g></svg>
